<svg width="24" height="24" viewBox="0 0 24 24" fill="none" xmlns="http://www.w3.org/2000/svg">
<path d="M1.75092 3.00008C1.65153 2.99867 1.55286 3.01703 1.46063 3.05409C1.36841 3.09115 1.28447 3.14617 1.21369 3.21595C1.14291 3.28574 1.08671 3.36889 1.04835 3.46059C1.00999 3.55228 0.990234 3.65068 0.990234 3.75007C0.990234 3.84947 1.00999 3.94787 1.04835 4.03956C1.08671 4.13126 1.14291 4.21441 1.21369 4.2842C1.28447 4.35398 1.36841 4.409 1.46063 4.44606C1.55286 4.48312 1.65153 4.50148 1.75092 4.50007H3.12885C3.49281 4.50007 3.79621 4.75154 3.86517 5.10945L4.01459 5.8907L5.62689 14.3585C5.91845 15.8862 7.26448 17.0001 8.82025 17.0001H18.1816C19.7373 17.0001 21.0839 15.8867 21.3749 14.3585L22.9872 5.8907C23.0079 5.78228 23.0044 5.67064 22.977 5.56373C22.9496 5.45682 22.8989 5.35728 22.8285 5.27221C22.7582 5.18715 22.67 5.11865 22.5701 5.07161C22.4703 5.02457 22.3613 5.00014 22.2509 5.00008H5.37103L5.33881 4.82918C5.13725 3.77284 4.2044 3.00008 3.12885 3.00008H1.75092ZM5.65717 6.50008H21.3447L19.9013 14.0782C19.7433 14.908 19.0268 15.5001 18.1816 15.5001H8.82025C7.97532 15.5001 7.25931 14.908 7.10053 14.0782V14.0772L5.65717 6.50008ZM10.0009 18.0001C9.60309 18.0001 9.22156 18.1581 8.94026 18.4394C8.65895 18.7207 8.50092 19.1022 8.50092 19.5001C8.50092 19.8979 8.65895 20.2794 8.94026 20.5607C9.22156 20.842 9.60309 21.0001 10.0009 21.0001C10.3987 21.0001 10.7803 20.842 11.0616 20.5607C11.3429 20.2794 11.5009 19.8979 11.5009 19.5001C11.5009 19.1022 11.3429 18.7207 11.0616 18.4394C10.7803 18.1581 10.3987 18.0001 10.0009 18.0001ZM17.0009 18.0001C16.6031 18.0001 16.2216 18.1581 15.9403 18.4394C15.659 18.7207 15.5009 19.1022 15.5009 19.5001C15.5009 19.8979 15.659 20.2794 15.9403 20.5607C16.2216 20.842 16.6031 21.0001 17.0009 21.0001C17.3987 21.0001 17.7803 20.842 18.0616 20.5607C18.3429 20.2794 18.5009 19.8979 18.5009 19.5001C18.5009 19.1022 18.3429 18.7207 18.0616 18.4394C17.7803 18.1581 17.3987 18.0001 17.0009 18.0001Z" fill="#FAFAFA"/>
</svg>
